<svg width="89" height="65" viewBox="0 0 89 65" fill="none" xmlns="http://www.w3.org/2000/svg">
<path fill-rule="evenodd" clip-rule="evenodd" d="M19.6703 8.40858C19.8167 7.29979 19.9343 6.097 20.0865 5.00333C20.1395 4.62201 20.1785 4.25421 20.2252 3.87306L20.3297 3.02595C20.3489 2.88843 20.3304 2.77453 20.3956 2.77453H22.4002L22.5561 4.0463C22.6085 4.47459 22.6511 4.88908 22.711 5.31904C22.7708 5.74839 22.8081 6.16023 22.8678 6.58975C22.9276 7.01963 22.9703 7.43412 23.0228 7.86258L23.4918 11.6765C23.5173 11.87 23.5257 11.8316 23.323 11.831H22.2558L22.0644 9.84483C22.0545 9.76737 22.0394 9.66054 22.0394 9.56689H20.7272C20.7123 9.74588 20.68 9.94919 20.67 10.1297C20.6523 10.4484 20.5963 10.9231 20.5673 11.2672C20.5522 11.4469 20.5258 11.6515 20.511 11.831H19.2563L19.3222 11.2478C19.4494 10.3288 19.5476 9.33669 19.6702 8.40884L19.6703 8.40858ZM21.0073 6.77511C20.98 6.96834 20.9784 7.14724 20.9538 7.34171L20.8427 8.48507H21.9242L21.5965 4.73175C21.5862 4.6557 21.5791 4.51836 21.5781 4.44717C21.5756 4.26243 21.5349 4.0593 21.5349 3.87041H21.2609C21.2016 3.87041 21.2163 3.92435 21.2173 3.98555L21.1878 4.43205C21.1454 4.98609 21.0847 5.6489 21.0588 6.19206L21.0073 6.7752V6.77511ZM29.942 7.28812C29.942 8.04016 29.9611 8.78787 29.9703 9.53841C29.9715 9.6302 29.9856 9.70016 29.9854 9.81185C29.9852 10.0243 29.9896 10.4208 30.0669 10.5812C30.2141 10.8875 30.5464 10.9078 30.8795 10.9078H37.34C37.5236 10.9078 37.7045 10.8969 37.8429 10.8484C37.9485 10.8112 38.0254 10.7558 38.0922 10.665C38.2396 10.4642 38.216 10.0766 38.2192 9.82564C38.2201 9.73615 38.2344 9.67486 38.2341 9.56671C38.2325 8.8595 38.2629 8.08703 38.2629 7.37469C38.2629 7.1743 38.2486 7.02697 38.2486 6.82676L38.2341 5.16835C38.2343 4.97972 38.2195 4.82142 38.2197 4.62041C38.22 4.0708 38.1578 3.69752 37.4843 3.69752H30.7065C30.3447 3.69752 30.1071 3.83645 30.0311 4.11811C30.0045 4.21662 29.9847 4.51995 29.9852 4.62024C29.9863 4.8124 29.9708 4.9608 29.9711 5.13961C29.9718 5.83824 29.9421 6.58232 29.9421 7.2882L29.942 7.28812ZM62.3477 6.49734L62.158 8.48507H63.2395L63.1823 7.90777C63.1548 7.41086 63.0623 6.83357 63.0376 6.32197C63.0346 6.25839 63.0249 6.2621 63.0231 6.19233C63.0209 6.10717 63.0155 5.98124 63.0026 5.89555L62.8706 4.15286C62.8601 4.08176 62.8502 3.93726 62.8502 3.87049H62.5472C62.5345 3.92532 62.5195 4.0952 62.5181 4.15861L62.4599 5.03773C62.4243 5.49255 62.3945 6.05172 62.3476 6.49743L62.3477 6.49734ZM66.7437 3.87041V7.49001H67.1331C67.8406 7.49001 68.0432 7.26955 68.0416 6.61036C68.0413 6.49345 68.0564 6.42199 68.0565 6.3225V5.02367C68.0564 4.92622 68.0413 4.86343 68.0416 4.75015C68.0443 3.7902 67.5573 3.87041 66.7437 3.87041ZM24.1017 8.48507H25.2265C25.2935 8.48507 25.255 8.57103 25.2551 8.65778C25.2551 8.72897 25.2603 8.81909 25.2546 8.88807C25.2218 9.2854 25.2501 9.73102 25.2548 10.1295C25.2607 10.6323 25.4804 10.9141 26.0034 10.9017C26.6142 10.8871 26.6559 10.566 26.7098 10.0837C26.7192 9.99986 26.7045 9.91302 26.7158 9.83006C26.7431 9.63153 26.7113 9.38365 26.7119 9.19166L26.6954 8.80432C26.6729 8.59517 26.6125 8.31289 26.5126 8.17953C26.1714 7.72383 24.885 7.94571 24.3583 7.10364C23.9678 6.4793 24.0441 5.49494 24.0441 4.72123C24.0441 4.09662 24.1581 3.53011 24.451 3.19583C24.5291 3.10678 24.5976 3.03408 24.7118 2.96634C24.998 2.79699 25.3915 2.70847 25.7912 2.68786H26.1607C26.4441 2.70246 26.7145 2.75021 26.9339 2.82644C27.1691 2.90815 27.3534 3.04231 27.4952 3.21688C28.0316 3.87739 27.8801 5.14801 27.8801 6.04783H26.6975C26.6975 5.73849 26.712 5.47822 26.712 5.16817C26.712 4.80586 26.7552 4.17002 26.5765 3.93372C26.373 3.66453 25.8725 3.64401 25.5915 3.77375C25.4863 3.82247 25.4201 3.90047 25.3708 4.00005C25.3159 4.11024 25.2917 4.21035 25.2736 4.34981C25.2642 4.42206 25.2678 4.50572 25.2595 4.56647C25.25 4.63518 25.2555 4.70894 25.2555 4.77898C25.2555 5.27527 25.2166 5.90395 25.3934 6.32834C25.6314 6.89989 26.6617 6.63176 27.3567 7.22029C27.8302 7.62098 27.9378 8.40132 27.9378 9.07634C27.9378 10.1532 28.015 11.3535 27.0028 11.7608C26.7763 11.8519 26.4871 11.9029 26.1877 11.9171H25.8298C25.5474 11.9038 25.2745 11.859 25.0553 11.7857C24.6218 11.6409 24.3859 11.359 24.2293 10.9389C24.0335 10.4133 24.0649 9.5354 24.0725 8.93149C24.0736 8.83819 24.102 8.65265 24.102 8.48498L24.1017 8.48507ZM28.8001 10.4633C28.7557 10.099 28.7577 9.67416 28.7596 9.29256C28.7603 9.15761 28.745 9.05229 28.745 8.90328C28.7452 8.37471 28.7349 7.80492 28.7349 7.30253C28.7349 6.80014 28.745 6.23044 28.745 5.70196C28.745 5.43648 28.7596 5.18869 28.7596 4.90889C28.7596 4.24758 28.7946 3.47625 29.3198 3.04646C29.6304 2.79213 30.1564 2.68804 30.5766 2.68804H37.6139C38.2139 2.68804 38.8745 2.84616 39.1761 3.38994C39.2644 3.54895 39.3314 3.74527 39.3723 3.94354C39.4033 4.09361 39.4262 4.29294 39.4304 4.46229C39.4324 4.53596 39.4457 4.55099 39.4458 4.63439C39.4461 4.75943 39.4458 4.88501 39.4452 5.00997C39.4446 5.1336 39.4598 5.23105 39.4598 5.37025C39.4598 5.87609 39.4743 6.34329 39.4743 6.85559L39.4598 9.26391C39.4599 9.40514 39.4448 9.48986 39.4453 9.62437C39.4468 10.0216 39.4408 10.2818 39.3694 10.6732C39.2999 11.055 39.1227 11.3953 38.8109 11.6145C38.5403 11.8048 38.0787 11.9172 37.6139 11.9172H30.5766C29.5444 11.9172 28.9252 11.4899 28.8002 10.4633H28.8001ZM40.4005 10.7024C40.3005 10.2759 40.2957 9.48438 40.31 9.00365L40.3383 8.62816C40.3428 8.56059 40.3161 8.48498 40.3825 8.48498H41.5073C41.5073 8.59446 41.4922 8.64248 41.4926 8.74427L41.4785 9.26382C41.4792 9.55813 41.4749 10.2605 41.5522 10.4879C41.599 10.6259 41.6533 10.714 41.7693 10.79C41.9721 10.9231 42.4006 10.9314 42.6134 10.8311C42.9798 10.6587 42.9638 10.0847 42.9638 9.63861C42.9638 9.19705 42.9817 8.49338 42.7376 8.16326C42.6144 7.997 42.4045 7.95217 42.1822 7.89663C41.9576 7.84048 41.7497 7.78901 41.53 7.72684C41.2174 7.63858 40.83 7.44509 40.6446 7.17023C40.2112 6.52767 40.2815 5.59071 40.2815 4.79321C40.2815 4.35317 40.3262 3.80762 40.5313 3.4423C40.5788 3.35766 40.5944 3.31159 40.6685 3.21909C40.8136 3.03789 41.0077 2.907 41.2531 2.8229C41.484 2.74367 41.7958 2.68786 42.0986 2.68786C42.693 2.68786 43.3065 2.72686 43.7172 3.18911C44.2047 3.73758 44.132 4.75227 44.132 5.51439C44.132 5.71063 44.1174 5.85301 44.1174 6.04783H42.935C42.935 5.64581 42.9927 4.41622 42.9081 4.12784C42.8743 4.01216 42.812 3.90498 42.7217 3.83839L42.544 3.74218C42.2771 3.64614 41.7552 3.66435 41.5936 4.02897C41.4709 4.3063 41.4918 4.96345 41.4924 5.34177C41.4925 5.42852 41.5069 5.44639 41.5078 5.52819C41.5117 5.84257 41.5243 6.11919 41.6655 6.39449C41.936 6.92173 43.4038 6.6077 43.906 7.61479C44.0827 7.96888 44.1751 8.45023 44.1751 8.97526C44.1751 9.5354 44.1976 10.1215 44.0923 10.6518C44.0341 10.945 43.9509 11.1231 43.7976 11.3522C43.5222 11.7631 42.8695 11.9171 42.3581 11.9171C41.3568 11.9171 40.6455 11.7465 40.4003 10.7024H40.4005ZM45.3259 11.3145C45.1269 11.0171 45.0215 10.5938 45.0112 10.2448L44.9828 6.42279L44.9966 4.64854C44.9976 4.56833 45.0114 4.55665 45.0122 4.47671C45.0166 4.04126 45.1328 3.58804 45.3989 3.2626C45.4173 3.24022 45.4282 3.23156 45.4463 3.2091C45.5918 3.02781 45.8095 2.90798 46.0272 2.82379C46.4796 2.64869 47.3767 2.64745 47.7949 2.80327C47.9302 2.85368 48.1676 2.94821 48.2742 3.04487C48.3673 3.12933 48.4271 3.17328 48.5047 3.29054C48.6117 3.45238 48.6765 3.58432 48.734 3.78215C48.8928 4.32761 48.8475 5.08045 48.8475 5.68737C48.8475 5.82772 48.833 5.90969 48.833 6.04783H47.6073L47.6218 4.56258C47.6218 4.23785 47.6029 3.95344 47.3451 3.80098C47.2748 3.75942 47.1741 3.72688 47.0846 3.71529C46.6566 3.65984 46.3268 3.77764 46.2452 4.22414L46.2224 4.54772C46.2191 4.66039 46.2228 4.78057 46.2228 4.89421C46.223 5.02562 46.2076 5.10707 46.2082 5.22575L46.1941 6.24981C46.1941 6.95843 46.1715 7.97251 46.2085 8.65796L46.2079 9.40832C46.2081 9.50127 46.2236 9.53735 46.2231 9.63834C46.2192 10.3161 46.1515 10.9076 46.9439 10.9076C47.469 10.9076 47.6648 10.6403 47.6648 10.1146V8.4994H48.8907C48.8907 8.98985 48.9233 9.92106 48.8644 10.3912C48.8235 10.7179 48.7433 11.0146 48.5995 11.2367C48.52 11.3596 48.4513 11.4473 48.3392 11.5389C48.2795 11.5878 48.245 11.6087 48.1783 11.6519C47.9334 11.8106 47.5099 11.9005 47.0687 11.9171H46.7692C46.3379 11.9009 45.9245 11.8139 45.6803 11.6522C45.5227 11.5477 45.4303 11.471 45.3257 11.3144L45.3259 11.3145ZM49.7848 11.7873V2.81769C49.7848 2.78452 49.7949 2.77444 49.8282 2.77444H51.0107V6.69685H52.323V2.77444H53.5487V11.8306H52.323V7.79272H51.0107V11.8306H49.8282C49.7949 11.8306 49.7848 11.8205 49.7848 11.7873ZM54.6014 11.8306V2.77444H55.784C55.8172 2.77444 55.8272 2.78452 55.8272 2.81769V11.7873C55.8272 11.8205 55.8172 11.8306 55.784 11.8306H54.6014ZM56.8655 11.8306V2.77444H58.0914V10.7346H60.1102V11.8306H56.8655ZM61.4037 5.00537L61.663 2.88507C61.6694 2.82653 61.6513 2.77444 61.711 2.77444H63.7154C63.7174 2.8612 63.7456 3.00826 63.756 3.09431L63.8726 4.04471C63.8932 4.26314 63.9211 4.46884 63.9506 4.68798C64.035 5.31931 64.097 5.96744 64.1831 6.58975C64.2425 7.01936 64.2855 7.43271 64.3381 7.86241C64.3893 8.27946 64.4467 8.71022 64.4941 9.13409C64.518 9.34739 64.5422 9.55574 64.5723 9.77692C64.6589 10.4121 64.7197 11.0436 64.807 11.6765C64.8335 11.8678 64.8414 11.8314 64.6383 11.8308H63.5712C63.5566 11.6548 63.5213 11.4473 63.5136 11.2683C63.5059 11.0883 63.476 10.8765 63.4582 10.7036L63.355 9.56671H62.0427L61.9583 10.4197C61.948 10.5184 61.9494 10.6017 61.9355 10.6997L61.8835 11.2679C61.8735 11.4483 61.8411 11.6517 61.8263 11.8307H60.5717L60.8457 9.55221C60.8876 9.17477 60.9361 8.77805 60.9855 8.40858C61.0367 8.02601 61.0734 7.66122 61.1241 7.27803C61.2224 6.53289 61.3054 5.74981 61.4037 5.00546L61.4037 5.00537ZM65.518 11.7873V2.81769C65.518 2.78452 65.528 2.77444 65.5612 2.77444H67.0755C67.4791 2.77444 67.8543 2.79717 68.1766 2.88445C69.0954 3.13375 69.2704 3.98988 69.2673 4.82213C69.2668 4.94072 69.2826 4.99829 69.2819 5.11034C69.2814 5.21124 69.2818 5.31241 69.2818 5.41331C69.2818 6.26821 69.3621 7.39954 68.8863 8.00311C68.7899 8.12568 68.5807 8.32023 68.431 8.35507C68.4365 8.42237 68.4713 8.51903 68.4903 8.58421C68.5104 8.65292 68.5293 8.72137 68.5513 8.79716C68.6271 9.05963 69.4047 11.75 69.4114 11.8305H68.1137L67.3638 8.94634C67.3462 8.87613 67.331 8.81422 67.312 8.73852C67.2877 8.64195 67.2849 8.57138 67.234 8.57138H66.7436V11.8305H65.5611C65.528 11.8305 65.5179 11.8205 65.5179 11.7872L65.518 11.7873ZM73.5835 0H15.0843C14.1109 0 13.3145 0.79626 13.3145 1.76974V12.8355C13.3145 13.8089 14.1108 14.6053 15.0843 14.6053H73.5835C74.5569 14.6053 75.3533 13.809 75.3533 12.8355V1.76974C75.3533 0.796349 74.557 0 73.5835 0Z" fill="black"/>
<path d="M15.96 51.165H19.8022C20.7873 51.165 21.2799 51.6576 21.2799 52.6428V57.1353C21.2799 62.2582 18.7184 64.8196 13.5955 64.8196H7.68439C2.5614 64.8196 0 62.2582 0 57.1353V25.2152C0 20.0922 2.56149 17.5308 7.68439 17.5308H13.5955C18.7185 17.5308 21.2799 20.0923 21.2799 25.2152V29.7077C21.2799 30.6928 20.7873 31.1854 19.8022 31.1854H15.96C14.9748 31.1854 14.4822 30.6928 14.4822 29.7077V28.3481C14.4822 26.6535 14.2654 25.56 13.832 25.0675C13.3985 24.5749 12.3344 24.3286 10.6399 24.3286C9.18176 24.3286 8.17697 24.5552 7.62523 25.0084C7.07349 25.4615 6.79766 26.5748 6.79766 28.3481V54.0023C6.79766 55.7756 7.07349 56.889 7.62523 57.3421C8.17688 57.7952 9.18176 58.0218 10.6399 58.0218C11.3886 58.0218 11.9305 58.0021 12.2655 57.9627C12.6004 57.9234 12.9749 57.7854 13.3886 57.549C13.8023 57.3126 14.0881 56.9086 14.2457 56.3371C14.4033 55.7658 14.4821 54.9875 14.4821 54.0023V52.6428C14.4821 51.6576 14.9748 51.165 15.96 51.165ZM23.6449 62.7508V19.0085C23.6449 18.0233 24.1375 17.5308 25.1226 17.5308H28.9648C29.95 17.5308 30.4425 18.0233 30.4425 19.0085V56.2485C30.4425 56.9184 30.5707 57.3815 30.8268 57.6376C31.083 57.8938 31.5459 58.0219 32.2159 58.0219H38.7773C39.7624 58.0219 40.255 58.5145 40.255 59.4997V63.3419C40.255 64.3271 39.7624 64.8196 38.7773 64.8196H25.7137C24.9256 64.8196 24.3837 64.6719 24.0881 64.3763C23.7926 64.0808 23.6449 63.5389 23.6449 62.7508ZM56.5701 53.4112V19.0085C56.5701 18.0233 57.0627 17.5308 58.0479 17.5308H61.89C62.8753 17.5308 63.3679 18.0233 63.3679 19.0085V57.1353C63.3679 62.2582 60.8064 64.8196 55.6835 64.8196H49.7132C44.5902 64.8196 42.0288 62.2582 42.0288 57.1353V19.0085C42.0288 18.0233 42.5214 17.5308 43.5065 17.5308H47.3487C48.3339 17.5308 48.8266 18.0233 48.8266 19.0085V53.4112C48.8266 55.224 49.1024 56.4456 49.6541 57.0761C50.2058 57.7066 51.1516 58.0219 52.4915 58.0219H52.8461C54.2647 58.0219 55.2401 57.7165 55.7721 57.1057C56.304 56.4949 56.5701 55.2635 56.5701 53.4112ZM66.9151 62.7508V19.5997C66.9151 18.8116 67.0629 18.2696 67.3585 17.9741C67.654 17.6786 68.1959 17.5308 68.9841 17.5308H79.9787C85.1017 17.5308 87.6631 20.0923 87.6631 25.2152V35.6188C87.6631 36.5646 87.3281 37.7074 86.6581 39.0472C86.4611 39.4018 86.5005 39.7369 86.7764 40.0522C88.0374 41.392 88.668 42.9683 88.668 44.781V57.1353C88.668 62.2582 86.1065 64.8196 80.9836 64.8196H68.9841C67.6047 64.8196 66.9151 64.1301 66.9151 62.7508ZM78.2052 43.5988H75.4862C74.8163 43.5988 74.3532 43.7269 74.097 43.9831C73.8409 44.2392 73.7128 44.7022 73.7128 45.3722V56.2486C73.7128 56.9185 73.8409 57.3816 74.097 57.6377C74.3532 57.8939 74.8162 58.022 75.4862 58.022H77.5551C79.1314 58.022 80.2447 57.7856 80.8949 57.3126C81.5451 56.8398 81.8701 55.7363 81.8701 54.0024V47.6184C81.8701 46.0027 81.5845 44.9387 81.0131 44.4264C80.4417 43.9141 79.5058 43.6383 78.2052 43.5988ZM76.5502 24.3286H75.4862C74.8163 24.3286 74.3532 24.4567 74.097 24.7128C73.8409 24.969 73.7128 25.432 73.7128 26.102V35.0277C73.7128 35.6582 73.8409 36.1115 74.097 36.3873C74.3532 36.6631 74.8162 36.801 75.4862 36.801H76.5502C78.1265 36.801 79.2397 36.5646 79.8899 36.0917C80.5403 35.6188 80.8652 34.5153 80.8652 32.7814V28.348C80.8652 26.6141 80.5402 25.5107 79.8899 25.0378C79.2397 24.5649 78.1265 24.3286 76.5502 24.3286Z" fill="black"/>
</svg>
