<svg width="201" height="147" viewBox="0 0 201 147" fill="none" xmlns="http://www.w3.org/2000/svg">
<path fill-rule="evenodd" clip-rule="evenodd" d="M44.5896 19.0613C44.9216 16.5478 45.188 13.8212 45.533 11.342C45.6533 10.4776 45.7417 9.6438 45.8476 8.77977L46.0845 6.85947C46.128 6.54774 46.0859 6.28954 46.2339 6.28954H50.7779L51.1313 9.17249C51.2502 10.1434 51.3468 11.083 51.4826 12.0577C51.6181 13.0309 51.7027 13.9645 51.838 14.9382C51.9735 15.9127 52.0703 16.8523 52.1894 17.8236L53.2525 26.4692C53.3102 26.9079 53.3293 26.8209 52.8698 26.8194H50.4507L50.0167 22.3171C49.9943 22.1415 49.9602 21.8993 49.9602 21.687H46.9854C46.9517 22.0928 46.8784 22.5536 46.8559 22.9628C46.8156 23.6853 46.6887 24.7614 46.623 25.5415C46.5887 25.9488 46.5289 26.4127 46.4953 26.8194H43.6512L43.8006 25.4976C44.0888 23.4143 44.3116 21.1652 44.5894 19.0619L44.5896 19.0613ZM47.6205 15.3584C47.5586 15.7964 47.555 16.202 47.4992 16.6428L47.2472 19.2347H49.699L48.956 10.7263C48.9328 10.5539 48.9167 10.2426 48.9143 10.0812C48.9087 9.66244 48.8165 9.20196 48.8165 8.77376H48.1952C48.0609 8.77376 48.0942 8.89605 48.0964 9.03477L48.0297 10.0469C47.9334 11.3029 47.7959 12.8054 47.7372 14.0367L47.6205 15.3586V15.3584ZM67.8744 16.5213C67.8744 18.2261 67.9177 19.9211 67.9385 21.6225C67.9413 21.8306 67.9732 21.9891 67.9728 22.2423C67.9722 22.7239 67.9822 23.6228 68.1574 23.9864C68.4912 24.6806 69.2446 24.7267 69.9995 24.7267H84.6447C85.061 24.7267 85.471 24.7021 85.7847 24.592C86.0241 24.5078 86.1985 24.3821 86.3499 24.1763C86.684 23.7212 86.6305 22.8425 86.6377 22.2736C86.6399 22.0707 86.6722 21.9318 86.6716 21.6866C86.668 20.0835 86.737 18.3324 86.737 16.7176C86.737 16.2633 86.7045 15.9293 86.7045 15.4755L86.6716 11.7161C86.672 11.2885 86.6385 10.9296 86.6389 10.4739C86.6397 9.22802 86.4986 8.38184 84.9718 8.38184H69.6074C68.7873 8.38184 68.2486 8.69678 68.0762 9.33528C68.0161 9.5586 67.9712 10.2462 67.9724 10.4735C67.9748 10.9092 67.9397 11.2456 67.9403 11.6509C67.9419 13.2346 67.8746 14.9214 67.8746 16.5215L67.8744 16.5213ZM141.334 14.7287L140.904 19.2347H143.356L143.226 17.926C143.164 16.7996 142.954 15.4909 142.898 14.3312C142.891 14.187 142.869 14.1955 142.865 14.0373C142.86 13.8442 142.848 13.5588 142.819 13.3645L142.52 9.41406C142.496 9.25288 142.473 8.92532 142.473 8.77396H141.787C141.758 8.89825 141.724 9.28335 141.721 9.42709L141.589 11.42C141.508 12.451 141.44 13.7185 141.334 14.7289L141.334 14.7287ZM151.299 8.77376V16.979H152.182C153.786 16.979 154.245 16.4792 154.242 14.9849C154.241 14.7199 154.275 14.5579 154.275 14.3324V11.3881C154.275 11.1672 154.241 11.0248 154.242 10.768C154.248 8.59193 153.144 8.77376 151.299 8.77376ZM54.6351 19.2347H57.1849C57.3367 19.2347 57.2495 19.4295 57.2497 19.6262C57.2497 19.7876 57.2615 19.9918 57.2485 20.1482C57.1743 21.0489 57.2384 22.0591 57.2491 22.9624C57.2625 24.1023 57.7605 24.741 58.946 24.7129C60.3307 24.6798 60.4251 23.9519 60.5474 22.8586C60.5686 22.6685 60.5354 22.4717 60.561 22.2836C60.6228 21.8336 60.5508 21.2716 60.5522 20.8364L60.5147 19.9584C60.4638 19.4843 60.3267 18.8444 60.1003 18.5421C59.3267 17.509 56.4107 18.012 55.2167 16.1031C54.3316 14.6878 54.5044 12.4564 54.5044 10.7025C54.5044 9.28656 54.7628 8.00235 55.4268 7.24458C55.604 7.0427 55.7592 6.87792 56.0182 6.72436C56.6669 6.34046 57.559 6.13979 58.4649 6.09308H59.3027C59.945 6.12616 60.558 6.23441 61.0554 6.40721C61.5884 6.59245 62.0062 6.89656 62.3278 7.29229C63.5436 8.7896 63.2002 11.6699 63.2002 13.7097H60.5195C60.5195 13.0085 60.5524 12.4185 60.5524 11.7157C60.5524 10.8943 60.6502 9.45295 60.2451 8.9173C59.7838 8.30707 58.6494 8.26056 58.0123 8.55465C57.7739 8.66511 57.6237 8.84192 57.5119 9.06765C57.3876 9.31743 57.3327 9.54437 57.2916 9.86051C57.2703 10.0243 57.2785 10.2139 57.2597 10.3517C57.2382 10.5074 57.2507 10.6746 57.2507 10.8334C57.2507 11.9584 57.1625 13.3836 57.5632 14.3456C58.1027 15.6413 60.4383 15.0334 62.0138 16.3676C63.0871 17.2759 63.3311 19.0448 63.3311 20.575C63.3311 23.0161 63.5061 25.7371 61.2116 26.6603C60.6981 26.867 60.0424 26.9824 59.3638 27.0147H58.5525C57.9122 26.9844 57.2936 26.883 56.7968 26.7168C55.8141 26.3886 55.2793 25.7495 54.9242 24.7971C54.4804 23.6057 54.5517 21.6157 54.5688 20.2466C54.5714 20.0352 54.6357 19.6146 54.6357 19.2345L54.6351 19.2347ZM65.2859 23.7192C65.1853 22.8932 65.1897 21.9302 65.1941 21.0652C65.1957 20.7592 65.161 20.5205 65.161 20.1827C65.1614 18.9845 65.138 17.6929 65.138 16.554C65.138 15.4151 65.161 14.1237 65.161 12.9257C65.161 12.3239 65.1939 11.7622 65.1939 11.1279C65.1939 9.62876 65.2733 7.88027 66.4639 6.90598C67.1679 6.32943 68.3603 6.09348 69.3129 6.09348H85.2657C86.6257 6.09348 88.1234 6.45192 88.807 7.68461C89.0071 8.04505 89.159 8.4901 89.2517 8.93955C89.322 9.27975 89.3739 9.7316 89.3836 10.1155C89.388 10.2825 89.4182 10.3166 89.4184 10.5056C89.419 10.7891 89.4184 11.0738 89.417 11.357C89.4156 11.6373 89.4501 11.8582 89.4501 12.1737C89.4501 13.3204 89.483 14.3795 89.483 15.5408L89.4501 21.0002C89.4503 21.3204 89.416 21.5124 89.4172 21.8173C89.4207 22.7178 89.407 23.3076 89.2452 24.1949C89.0877 25.0603 88.6859 25.8319 87.9791 26.3287C87.3656 26.7601 86.3194 27.0149 85.2657 27.0149H69.3129C66.9731 27.0149 65.5694 26.0462 65.2861 23.7192H65.2859ZM91.5825 24.2611C91.3558 23.2942 91.345 21.5 91.3774 20.4102L91.4416 19.559C91.4518 19.4059 91.3913 19.2345 91.5418 19.2345H94.0916C94.0916 19.4827 94.0573 19.5915 94.0583 19.8223L94.0262 21C94.0279 21.6672 94.018 23.2593 94.1934 23.7749C94.2995 24.0876 94.4226 24.2873 94.6854 24.4597C95.1453 24.7614 96.1165 24.7803 96.5989 24.5529C97.4296 24.162 97.3933 22.8608 97.3933 21.8496C97.3933 20.8487 97.4338 19.2535 96.8805 18.5052C96.6013 18.1283 96.1254 18.0266 95.6214 17.9007C95.1124 17.7734 94.6411 17.6568 94.1429 17.5158C93.4345 17.3158 92.5562 16.8771 92.136 16.2541C91.1535 14.7975 91.3129 12.6735 91.3129 10.8657C91.3129 9.86812 91.4141 8.63143 91.879 7.80329C91.9867 7.61144 92.0221 7.50699 92.1901 7.2973C92.5191 6.88654 92.9589 6.58984 93.5152 6.3992C94.0387 6.21957 94.7455 6.09308 95.4319 6.09308C96.7793 6.09308 98.1702 6.18149 99.1011 7.22934C100.206 8.47265 100.041 10.7728 100.041 12.5005C100.041 12.9453 100.008 13.2681 100.008 13.7097H97.328C97.328 12.7984 97.4589 10.0111 97.267 9.35733C97.1905 9.09511 97.0491 8.85214 96.8445 8.70119L96.4417 8.48308C95.8367 8.26537 94.6535 8.30667 94.2873 9.1332C94.009 9.76188 94.0565 11.2516 94.0577 12.1092C94.0581 12.3058 94.0906 12.3463 94.0928 12.5318C94.1014 13.2444 94.1301 13.8715 94.4502 14.4956C95.0635 15.6908 98.3907 14.9789 99.5291 17.2619C99.9297 18.0645 100.139 19.1557 100.139 20.3459C100.139 21.6157 100.19 22.9442 99.9515 24.1464C99.8196 24.8111 99.631 25.2149 99.2834 25.7341C98.6591 26.6657 97.1794 27.0147 96.0203 27.0147C93.7504 27.0147 92.138 26.628 91.5821 24.2611H91.5825ZM102.748 25.6487C102.297 24.9745 102.058 24.0149 102.034 23.2238L101.97 14.5597L102.001 10.5377C102.004 10.3559 102.035 10.3294 102.037 10.1482C102.047 9.16107 102.31 8.13366 102.913 7.39593C102.955 7.34521 102.98 7.32557 103.021 7.27465C103.351 6.86368 103.844 6.59205 104.338 6.4012C105.363 6.00427 107.397 6.00146 108.345 6.35469C108.652 6.46896 109.19 6.68326 109.431 6.90237C109.642 7.09382 109.778 7.19346 109.954 7.45928C110.196 7.82614 110.343 8.12524 110.474 8.57369C110.834 9.81019 110.731 11.5168 110.731 12.8926C110.731 13.2108 110.698 13.3966 110.698 13.7097H107.92L107.952 10.3428C107.952 9.60671 107.91 8.962 107.325 8.61639C107.166 8.52217 106.937 8.4484 106.735 8.42214C105.764 8.29644 105.017 8.56347 104.832 9.57564L104.78 10.3092C104.773 10.5646 104.781 10.837 104.781 11.0946C104.781 11.3925 104.747 11.5771 104.748 11.8462L104.716 14.1676C104.716 15.774 104.665 18.0728 104.749 19.6266L104.747 21.3276C104.748 21.5383 104.783 21.6201 104.782 21.849C104.773 23.3854 104.619 24.7263 106.416 24.7263C107.606 24.7263 108.05 24.1203 108.05 22.9285V19.2671H110.829C110.829 20.379 110.903 22.4899 110.769 23.5556C110.676 24.2961 110.495 24.9687 110.169 25.4723C109.988 25.7509 109.833 25.9496 109.579 26.1573C109.443 26.2682 109.365 26.3155 109.214 26.4135C108.659 26.7733 107.699 26.977 106.699 27.0147H106.02C105.042 26.978 104.105 26.7808 103.551 26.4141C103.194 26.1773 102.985 26.0033 102.747 25.6485L102.748 25.6487ZM112.856 26.7204V6.38737C112.856 6.31219 112.879 6.28934 112.954 6.28934H115.635V15.181H118.609V6.28934H121.388V26.8186H118.609V17.6652H115.635V26.8186H112.954C112.879 26.8186 112.856 26.7958 112.856 26.7204ZM123.774 26.8186V6.28934H126.455C126.53 6.28934 126.553 6.31219 126.553 6.38737V26.7204C126.553 26.7958 126.53 26.8186 126.455 26.8186H123.774ZM128.907 26.8186V6.28934H131.686V24.334H136.262V26.8186H128.907ZM139.194 11.3466L139.782 6.54013C139.797 6.40741 139.756 6.28934 139.891 6.28934H144.435C144.439 6.486 144.503 6.81938 144.527 7.01444L144.791 9.16889C144.838 9.66405 144.901 10.1303 144.968 10.6271C145.159 12.0583 145.3 13.5275 145.495 14.9382C145.63 15.9121 145.727 16.8491 145.846 17.8232C145.962 18.7686 146.092 19.7451 146.2 20.7059C146.254 21.1895 146.309 21.6618 146.377 22.1631C146.574 23.6031 146.711 25.0345 146.909 26.4692C146.969 26.9028 146.987 26.8205 146.527 26.819H144.108C144.075 26.4201 143.995 25.9496 143.977 25.5439C143.96 25.1359 143.892 24.6558 143.852 24.2639L143.618 21.6866H140.643L140.452 23.6204C140.428 23.8441 140.431 24.0329 140.4 24.255L140.282 25.5431C140.259 25.952 140.186 26.4131 140.152 26.8188H137.308L137.93 21.6537C138.025 20.7981 138.134 19.8988 138.246 19.0613C138.363 18.194 138.446 17.3671 138.561 16.4985C138.783 14.8093 138.972 13.0341 139.194 11.3468L139.194 11.3466ZM148.521 26.7204V6.38737C148.521 6.31219 148.544 6.28934 148.619 6.28934H152.052C152.967 6.28934 153.817 6.34086 154.548 6.53872C156.631 7.10385 157.027 9.0446 157.02 10.9312C157.019 11.2 157.055 11.3306 157.053 11.5845C157.052 11.8133 157.053 12.0426 157.053 12.2714C157.053 14.2093 157.235 16.7739 156.157 18.1421C155.938 18.42 155.464 18.861 155.124 18.94C155.137 19.0925 155.216 19.3117 155.259 19.4594C155.304 19.6152 155.347 19.7703 155.397 19.9421C155.569 20.5371 157.332 26.6358 157.347 26.8184H154.405L152.705 20.2803C152.665 20.1212 152.631 19.9808 152.588 19.8092C152.533 19.5903 152.526 19.4303 152.411 19.4303H151.299V26.8184H148.619C148.544 26.8184 148.521 26.7956 148.521 26.7202L148.521 26.7204ZM166.805 0H34.1936C31.9871 0 30.1816 1.80503 30.1816 4.0118V29.0966C30.1816 31.3032 31.9869 33.1086 34.1936 33.1086H166.805C169.011 33.1086 170.817 31.3034 170.817 29.0966V4.0118C170.817 1.80523 169.011 0 166.805 0Z" fill="white"/>
<path d="M36.1794 115.985H44.8892C47.1224 115.985 48.239 117.102 48.239 119.335V129.519C48.239 141.132 42.4324 146.939 30.8194 146.939H17.4196C5.80641 146.939 0 141.132 0 129.519V57.1599C0 45.5466 5.80661 39.7402 17.4196 39.7402H30.8194C42.4326 39.7402 48.239 45.5468 48.239 57.1599V67.3439C48.239 69.5772 47.1224 70.6938 44.8892 70.6938H36.1794C33.9461 70.6938 32.8295 69.5772 32.8295 67.3439V64.2619C32.8295 60.4205 32.338 57.9417 31.3555 56.8251C30.3728 55.7085 27.9607 55.1501 24.1195 55.1501C20.814 55.1501 18.5362 55.6637 17.2855 56.6912C16.0348 57.7184 15.4095 60.2421 15.4095 64.2619V122.417C15.4095 126.437 16.0348 128.961 17.2855 129.988C18.536 131.015 20.814 131.529 24.1195 131.529C25.8167 131.529 27.045 131.484 27.8044 131.395C28.5637 131.306 29.4125 130.993 30.3503 130.457C31.2883 129.921 31.936 129.005 32.2933 127.71C32.6505 126.415 32.8293 124.65 32.8293 122.417V119.335C32.8293 117.102 33.9461 115.985 36.1794 115.985ZM53.6002 142.249V43.0901C53.6002 40.8569 54.7168 39.7402 56.9501 39.7402H65.6599C67.8931 39.7402 69.0097 40.8569 69.0097 43.0901V127.509C69.0097 129.027 69.3002 130.077 69.8808 130.658C70.4615 131.239 71.511 131.529 73.0297 131.529H87.9036C90.1368 131.529 91.2534 132.646 91.2534 134.879V143.589C91.2534 145.822 90.1368 146.939 87.9036 146.939H58.29C56.5034 146.939 55.2749 146.604 54.605 145.934C53.935 145.264 53.6002 144.035 53.6002 142.249ZM128.238 121.077V43.0901C128.238 40.8569 129.355 39.7402 131.588 39.7402H140.298C142.531 39.7402 143.648 40.8569 143.648 43.0901V129.519C143.648 141.132 137.841 146.939 126.228 146.939H112.694C101.081 146.939 95.2745 141.132 95.2745 129.519V43.0901C95.2745 40.8569 96.3911 39.7402 98.6243 39.7402H107.334C109.567 39.7402 110.684 40.8569 110.684 43.0901V121.077C110.684 125.186 111.309 127.956 112.56 129.385C113.811 130.814 115.955 131.529 118.992 131.529H119.796C123.012 131.529 125.223 130.837 126.429 129.452C127.635 128.067 128.238 125.276 128.238 121.077ZM151.689 142.249V44.4302C151.689 42.6436 152.024 41.4152 152.694 40.7452C153.364 40.0754 154.592 39.7402 156.379 39.7402H181.302C192.916 39.7402 198.722 45.5468 198.722 57.1599V80.7437C198.722 82.8877 197.963 85.4782 196.444 88.5155C195.997 89.3194 196.087 90.079 196.712 90.7937C199.571 93.8308 201 97.4042 201 101.513V129.519C201 141.132 195.193 146.939 183.58 146.939H156.379C153.252 146.939 151.689 145.376 151.689 142.249ZM177.282 98.8335H171.118C169.6 98.8335 168.55 99.1238 167.969 99.7046C167.389 100.285 167.098 101.335 167.098 102.854V127.509C167.098 129.028 167.389 130.078 167.969 130.658C168.55 131.239 169.6 131.529 171.118 131.529H175.808C179.382 131.529 181.905 130.993 183.379 129.921C184.853 128.849 185.59 126.348 185.59 122.417V107.945C185.59 104.283 184.943 101.871 183.647 100.71C182.352 99.5482 180.23 98.9229 177.282 98.8335ZM173.53 55.1501H171.118C169.6 55.1501 168.55 55.4404 167.969 56.0212C167.389 56.6017 167.098 57.6514 167.098 59.1702V79.4038C167.098 80.8331 167.389 81.8605 167.969 82.4858C168.55 83.1111 169.6 83.4236 171.118 83.4236H173.53C177.104 83.4236 179.627 82.8877 181.101 81.8156C182.575 80.7437 183.312 78.2423 183.312 74.3116V64.2617C183.312 60.3311 182.575 57.8298 181.101 56.7577C179.627 55.6858 177.104 55.1501 173.53 55.1501Z" fill="white"/>
</svg>
