<svg width="89" height="65" viewBox="0 0 89 65" fill="none" xmlns="http://www.w3.org/2000/svg">
<path fill-rule="evenodd" clip-rule="evenodd" d="M19.6698 8.40858C19.8163 7.29979 19.9338 6.097 20.086 5.00333C20.139 4.62201 20.178 4.25421 20.2247 3.87306L20.3293 3.02595C20.3485 2.88843 20.3299 2.77453 20.3951 2.77453H22.3997L22.5556 4.0463C22.608 4.47459 22.6507 4.88908 22.7105 5.31904C22.7703 5.74839 22.8076 6.16023 22.8673 6.58975C22.9271 7.01963 22.9698 7.43412 23.0223 7.86258L23.4913 11.6765C23.5168 11.87 23.5252 11.8316 23.3225 11.831H22.2554L22.0639 9.84483C22.054 9.76737 22.039 9.66054 22.039 9.56689H20.7267C20.7118 9.74588 20.6795 9.94919 20.6696 10.1297C20.6518 10.4484 20.5958 10.9231 20.5668 11.2672C20.5517 11.4469 20.5253 11.6515 20.5105 11.831H19.2558L19.3217 11.2478C19.4489 10.3288 19.5472 9.33669 19.6697 8.40884L19.6698 8.40858ZM21.0068 6.77511C20.9795 6.96834 20.9779 7.14724 20.9533 7.34171L20.8422 8.48507H21.9237L21.596 4.73175C21.5857 4.6557 21.5787 4.51836 21.5776 4.44717C21.5751 4.26243 21.5344 4.0593 21.5344 3.87041H21.2604C21.2011 3.87041 21.2158 3.92435 21.2168 3.98555L21.1873 4.43205C21.1449 4.98609 21.0842 5.6489 21.0583 6.19206L21.0068 6.7752V6.77511ZM29.9415 7.28812C29.9415 8.04016 29.9606 8.78787 29.9698 9.53841C29.9711 9.6302 29.9851 9.70016 29.9849 9.81185C29.9847 10.0243 29.9891 10.4208 30.0664 10.5812C30.2136 10.8875 30.546 10.9078 30.879 10.9078H37.3395C37.5231 10.9078 37.704 10.8969 37.8424 10.8484C37.948 10.8112 38.0249 10.7558 38.0917 10.665C38.2391 10.4642 38.2155 10.0766 38.2187 9.82564C38.2196 9.73615 38.2339 9.67486 38.2336 9.56671C38.232 8.8595 38.2625 8.08703 38.2625 7.37469C38.2625 7.1743 38.2481 7.02697 38.2481 6.82676L38.2336 5.16835C38.2338 4.97972 38.219 4.82142 38.2192 4.62041C38.2196 4.0708 38.1573 3.69752 37.4838 3.69752H30.706C30.3442 3.69752 30.1066 3.83645 30.0306 4.11811C30.004 4.21662 29.9842 4.51995 29.9848 4.62024C29.9858 4.8124 29.9703 4.9608 29.9706 5.13961C29.9713 5.83824 29.9416 6.58232 29.9416 7.2882L29.9415 7.28812ZM62.3472 6.49734L62.1575 8.48507H63.239L63.1818 7.90777C63.1543 7.41086 63.0618 6.83357 63.0371 6.32197C63.0341 6.25839 63.0244 6.2621 63.0226 6.19233C63.0204 6.10717 63.0151 5.98124 63.0021 5.89555L62.8701 4.15286C62.8596 4.08176 62.8497 3.93726 62.8497 3.87049H62.5467C62.534 3.92532 62.519 4.0952 62.5176 4.15861L62.4594 5.03773C62.4238 5.49255 62.394 6.05172 62.3471 6.49743L62.3472 6.49734ZM66.7432 3.87041V7.49001H67.1326C67.8401 7.49001 68.0427 7.26955 68.0411 6.61036C68.0409 6.49345 68.0559 6.42199 68.056 6.3225V5.02367C68.0559 4.92622 68.0408 4.86343 68.0411 4.75015C68.0439 3.7902 67.5568 3.87041 66.7432 3.87041ZM24.1012 8.48507H25.226C25.293 8.48507 25.2545 8.57103 25.2546 8.65778C25.2546 8.72897 25.2598 8.81909 25.2541 8.88807C25.2213 9.2854 25.2496 9.73102 25.2543 10.1295C25.2603 10.6323 25.4799 10.9141 26.0029 10.9017C26.6137 10.8871 26.6554 10.566 26.7093 10.0837C26.7187 9.99986 26.704 9.91302 26.7154 9.83006C26.7426 9.63153 26.7108 9.38365 26.7115 9.19166L26.6949 8.80432C26.6725 8.59517 26.612 8.31289 26.5121 8.17953C26.1709 7.72383 24.8845 7.94571 24.3578 7.10364C23.9674 6.4793 24.0436 5.49494 24.0436 4.72123C24.0436 4.09662 24.1576 3.53011 24.4505 3.19583C24.5286 3.10678 24.5971 3.03408 24.7113 2.96634C24.9975 2.79699 25.3911 2.70847 25.7907 2.68786H26.1603C26.4436 2.70246 26.714 2.75021 26.9334 2.82644C27.1686 2.90815 27.3529 3.04231 27.4947 3.21688C28.0311 3.87739 27.8796 5.14801 27.8796 6.04783H26.697C26.697 5.73849 26.7115 5.47822 26.7115 5.16817C26.7115 4.80586 26.7547 4.17002 26.576 3.93372C26.3725 3.66453 25.872 3.64401 25.591 3.77375C25.4859 3.82247 25.4196 3.90047 25.3703 4.00005C25.3154 4.11024 25.2912 4.21035 25.2731 4.34981C25.2637 4.42206 25.2673 4.50572 25.259 4.56647C25.2496 4.63518 25.255 4.70894 25.255 4.77898C25.255 5.27527 25.2161 5.90395 25.3929 6.32834C25.6309 6.89989 26.6612 6.63176 27.3562 7.22029C27.8297 7.62098 27.9373 8.40132 27.9373 9.07634C27.9373 10.1532 28.0145 11.3535 27.0023 11.7608C26.7758 11.8519 26.4866 11.9029 26.1872 11.9171H25.8293C25.5469 11.9038 25.274 11.859 25.0548 11.7857C24.6213 11.6409 24.3854 11.359 24.2288 10.9389C24.033 10.4133 24.0645 9.5354 24.072 8.93149C24.0731 8.83819 24.1015 8.65265 24.1015 8.48498L24.1012 8.48507ZM28.7997 10.4633C28.7553 10.099 28.7572 9.67416 28.7592 9.29256C28.7599 9.15761 28.7446 9.05229 28.7446 8.90328C28.7447 8.37471 28.7344 7.80492 28.7344 7.30253C28.7344 6.80014 28.7446 6.23044 28.7446 5.70196C28.7446 5.43648 28.7591 5.18869 28.7591 4.90889C28.7591 4.24758 28.7941 3.47625 29.3193 3.04646C29.6299 2.79213 30.1559 2.68804 30.5761 2.68804H37.6134C38.2134 2.68804 38.8741 2.84616 39.1756 3.38994C39.2639 3.54895 39.3309 3.74527 39.3718 3.94354C39.4028 4.09361 39.4257 4.29294 39.43 4.46229C39.4319 4.53596 39.4453 4.55099 39.4453 4.63439C39.4456 4.75943 39.4453 4.88501 39.4447 5.00997C39.4441 5.1336 39.4593 5.23105 39.4593 5.37025C39.4593 5.87609 39.4738 6.34329 39.4738 6.85559L39.4593 9.26391C39.4594 9.40514 39.4443 9.48986 39.4448 9.62437C39.4463 10.0216 39.4403 10.2818 39.3689 10.6732C39.2994 11.055 39.1222 11.3953 38.8104 11.6145C38.5398 11.8048 38.0782 11.9172 37.6134 11.9172H30.5761C29.5439 11.9172 28.9247 11.4899 28.7997 10.4633H28.7997ZM40.4 10.7024C40.3 10.2759 40.2952 9.48438 40.3095 9.00365L40.3378 8.62816C40.3423 8.56059 40.3156 8.48498 40.382 8.48498H41.5068C41.5068 8.59446 41.4917 8.64248 41.4922 8.74427L41.478 9.26382C41.4787 9.55813 41.4744 10.2605 41.5518 10.4879C41.5985 10.6259 41.6528 10.714 41.7688 10.79C41.9716 10.9231 42.4001 10.9314 42.6129 10.8311C42.9793 10.6587 42.9633 10.0847 42.9633 9.63861C42.9633 9.19705 42.9812 8.49338 42.7371 8.16326C42.6139 7.997 42.404 7.95217 42.1817 7.89663C41.9571 7.84048 41.7492 7.78901 41.5295 7.72684C41.2169 7.63858 40.8295 7.44509 40.6442 7.17023C40.2107 6.52767 40.281 5.59071 40.281 4.79321C40.281 4.35317 40.3257 3.80762 40.5308 3.4423C40.5783 3.35766 40.5939 3.31159 40.668 3.21909C40.8132 3.03789 41.0072 2.907 41.2526 2.8229C41.4835 2.74367 41.7953 2.68786 42.0981 2.68786C42.6925 2.68786 43.306 2.72686 43.7167 3.18911C44.2042 3.73758 44.1315 4.75227 44.1315 5.51439C44.1315 5.71063 44.117 5.85301 44.117 6.04783H42.9345C42.9345 5.64581 42.9923 4.41622 42.9076 4.12784C42.8738 4.01216 42.8115 3.90498 42.7212 3.83839L42.5435 3.74218C42.2766 3.64614 41.7547 3.66435 41.5931 4.02897C41.4704 4.3063 41.4914 4.96345 41.4919 5.34177C41.4921 5.42852 41.5064 5.44639 41.5074 5.52819C41.5112 5.84257 41.5238 6.11919 41.665 6.39449C41.9356 6.92173 43.4033 6.6077 43.9055 7.61479C44.0822 7.96888 44.1746 8.45023 44.1746 8.97526C44.1746 9.5354 44.1971 10.1215 44.0918 10.6518C44.0337 10.945 43.9504 11.1231 43.7971 11.3522C43.5217 11.7631 42.869 11.9171 42.3577 11.9171C41.3563 11.9171 40.645 11.7465 40.3998 10.7024H40.4ZM45.3254 11.3145C45.1264 11.0171 45.021 10.5938 45.0107 10.2448L44.9823 6.42279L44.9961 4.64854C44.9971 4.56833 45.0109 4.55665 45.0117 4.47671C45.0161 4.04126 45.1323 3.58804 45.3985 3.2626C45.4169 3.24022 45.4277 3.23156 45.4458 3.2091C45.5913 3.02781 45.809 2.90798 46.0267 2.82379C46.4791 2.64869 47.3762 2.64745 47.7944 2.80327C47.9297 2.85368 48.1672 2.94821 48.2737 3.04487C48.3668 3.12933 48.4266 3.17328 48.5042 3.29054C48.6112 3.45238 48.676 3.58432 48.7335 3.78215C48.8923 4.32761 48.847 5.08045 48.847 5.68737C48.847 5.82772 48.8325 5.90969 48.8325 6.04783H47.6068L47.6213 4.56258C47.6213 4.23785 47.6024 3.95344 47.3446 3.80098C47.2743 3.75942 47.1736 3.72688 47.0841 3.71529C46.6561 3.65984 46.3263 3.77764 46.2447 4.22414L46.222 4.54772C46.2186 4.66039 46.2223 4.78057 46.2223 4.89421C46.2225 5.02562 46.2071 5.10707 46.2077 5.22575L46.1936 6.24981C46.1936 6.95843 46.171 7.97251 46.208 8.65796L46.2075 9.40832C46.2076 9.50127 46.2231 9.53735 46.2226 9.63834C46.2187 10.3161 46.151 10.9076 46.9434 10.9076C47.4685 10.9076 47.6643 10.6403 47.6643 10.1146V8.4994H48.8902C48.8902 8.98985 48.9228 9.92106 48.8639 10.3912C48.823 10.7179 48.7428 11.0146 48.599 11.2367C48.5195 11.3596 48.4509 11.4473 48.3387 11.5389C48.279 11.5878 48.2445 11.6087 48.1779 11.6519C47.9329 11.8106 47.5094 11.9005 47.0682 11.9171H46.7687C46.3374 11.9009 45.924 11.8139 45.6798 11.6522C45.5222 11.5477 45.4299 11.471 45.3252 11.3144L45.3254 11.3145ZM49.7843 11.7873V2.81769C49.7843 2.78452 49.7944 2.77444 49.8277 2.77444H51.0102V6.69685H52.3225V2.77444H53.5482V11.8306H52.3225V7.79272H51.0102V11.8306H49.8277C49.7944 11.8306 49.7843 11.8205 49.7843 11.7873ZM54.6009 11.8306V2.77444H55.7835C55.8167 2.77444 55.8267 2.78452 55.8267 2.81769V11.7873C55.8267 11.8205 55.8167 11.8306 55.7835 11.8306H54.6009ZM56.865 11.8306V2.77444H58.0909V10.7346H60.1097V11.8306H56.865ZM61.4032 5.00537L61.6625 2.88507C61.6689 2.82653 61.6508 2.77444 61.7105 2.77444H63.7149C63.7169 2.8612 63.7451 3.00826 63.7555 3.09431L63.8722 4.04471C63.8928 4.26314 63.9206 4.46884 63.9501 4.68798C64.0345 5.31931 64.0965 5.96744 64.1826 6.58975C64.242 7.01936 64.285 7.43271 64.3376 7.86241C64.3888 8.27946 64.4462 8.71022 64.4936 9.13409C64.5176 9.34739 64.5417 9.55574 64.5718 9.77692C64.6584 10.4121 64.7192 11.0436 64.8066 11.6765C64.833 11.8678 64.841 11.8314 64.6378 11.8308H63.5707C63.5561 11.6548 63.5208 11.4473 63.5131 11.2683C63.5054 11.0883 63.4755 10.8765 63.4577 10.7036L63.3545 9.56671H62.0422L61.9578 10.4197C61.9475 10.5184 61.9489 10.6017 61.935 10.6997L61.883 11.2679C61.873 11.4483 61.8407 11.6517 61.8258 11.8307H60.5712L60.8452 9.55221C60.8872 9.17477 60.9356 8.77805 60.9851 8.40858C61.0363 8.02601 61.073 7.66122 61.1236 7.27803C61.2219 6.53289 61.3049 5.74981 61.4033 5.00546L61.4032 5.00537ZM65.5175 11.7873V2.81769C65.5175 2.78452 65.5276 2.77444 65.5607 2.77444H67.075C67.4786 2.77444 67.8538 2.79717 68.1762 2.88445C69.0949 3.13375 69.2699 3.98988 69.2668 4.82213C69.2663 4.94072 69.2821 4.99829 69.2814 5.11034C69.2809 5.21124 69.2813 5.31241 69.2813 5.41331C69.2813 6.26821 69.3616 7.39954 68.8858 8.00311C68.7894 8.12568 68.5802 8.32023 68.4305 8.35507C68.436 8.42237 68.4708 8.51903 68.4898 8.58421C68.5099 8.65292 68.5288 8.72137 68.5508 8.79716C68.6266 9.05963 69.4042 11.75 69.411 11.8305H68.1132L67.3633 8.94634C67.3457 8.87613 67.3305 8.81422 67.3115 8.73852C67.2872 8.64195 67.2844 8.57138 67.2335 8.57138H66.7431V11.8305H65.5606C65.5275 11.8305 65.5174 11.8205 65.5174 11.7872L65.5175 11.7873ZM73.583 0H15.0838C14.1104 0 13.314 0.79626 13.314 1.76974V12.8355C13.314 13.8089 14.1103 14.6053 15.0838 14.6053H73.583C74.5564 14.6053 75.3528 13.809 75.3528 12.8355V1.76974C75.3528 0.796349 74.5565 0 73.583 0Z" fill="black"/>
<path d="M15.96 51.165H19.8022C20.7873 51.165 21.2799 51.6576 21.2799 52.6428V57.1353C21.2799 62.2582 18.7184 64.8196 13.5955 64.8196H7.68439C2.5614 64.8196 0 62.2582 0 57.1353V25.2152C0 20.0922 2.56149 17.5308 7.68439 17.5308H13.5955C18.7185 17.5308 21.2799 20.0923 21.2799 25.2152V29.7077C21.2799 30.6928 20.7873 31.1854 19.8022 31.1854H15.96C14.9748 31.1854 14.4822 30.6928 14.4822 29.7077V28.3481C14.4822 26.6535 14.2654 25.56 13.832 25.0675C13.3985 24.5749 12.3344 24.3286 10.6399 24.3286C9.18176 24.3286 8.17697 24.5552 7.62523 25.0084C7.07349 25.4615 6.79766 26.5748 6.79766 28.3481V54.0023C6.79766 55.7756 7.07349 56.889 7.62523 57.3421C8.17688 57.7952 9.18176 58.0218 10.6399 58.0218C11.3886 58.0218 11.9305 58.0021 12.2655 57.9627C12.6004 57.9234 12.9749 57.7854 13.3886 57.549C13.8023 57.3126 14.0881 56.9086 14.2457 56.3371C14.4033 55.7658 14.4821 54.9875 14.4821 54.0023V52.6428C14.4821 51.6576 14.9748 51.165 15.96 51.165ZM23.6449 62.7508V19.0085C23.6449 18.0233 24.1375 17.5308 25.1226 17.5308H28.9648C29.95 17.5308 30.4425 18.0233 30.4425 19.0085V56.2485C30.4425 56.9184 30.5707 57.3815 30.8268 57.6376C31.083 57.8938 31.5459 58.0219 32.2159 58.0219H38.7773C39.7624 58.0219 40.255 58.5145 40.255 59.4997V63.3419C40.255 64.3271 39.7624 64.8196 38.7773 64.8196H25.7137C24.9256 64.8196 24.3837 64.6719 24.0881 64.3763C23.7926 64.0808 23.6449 63.5389 23.6449 62.7508ZM56.5701 53.4112V19.0085C56.5701 18.0233 57.0627 17.5308 58.0479 17.5308H61.89C62.8753 17.5308 63.3679 18.0233 63.3679 19.0085V57.1353C63.3679 62.2582 60.8064 64.8196 55.6835 64.8196H49.7132C44.5902 64.8196 42.0288 62.2582 42.0288 57.1353V19.0085C42.0288 18.0233 42.5214 17.5308 43.5065 17.5308H47.3487C48.3339 17.5308 48.8266 18.0233 48.8266 19.0085V53.4112C48.8266 55.224 49.1024 56.4456 49.6541 57.0761C50.2058 57.7066 51.1516 58.0219 52.4915 58.0219H52.8461C54.2647 58.0219 55.2401 57.7165 55.7721 57.1057C56.304 56.4949 56.5701 55.2635 56.5701 53.4112ZM66.9151 62.7508V19.5997C66.9151 18.8116 67.0629 18.2696 67.3585 17.9741C67.654 17.6786 68.1959 17.5308 68.9841 17.5308H79.9787C85.1017 17.5308 87.6631 20.0923 87.6631 25.2152V35.6188C87.6631 36.5646 87.3281 37.7074 86.6581 39.0472C86.4611 39.4018 86.5005 39.7369 86.7764 40.0522C88.0374 41.392 88.668 42.9683 88.668 44.781V57.1353C88.668 62.2582 86.1065 64.8196 80.9836 64.8196H68.9841C67.6047 64.8196 66.9151 64.1301 66.9151 62.7508ZM78.2052 43.5988H75.4862C74.8163 43.5988 74.3532 43.7269 74.097 43.9831C73.8409 44.2392 73.7128 44.7022 73.7128 45.3722V56.2486C73.7128 56.9185 73.8409 57.3816 74.097 57.6377C74.3532 57.8939 74.8162 58.022 75.4862 58.022H77.5551C79.1314 58.022 80.2447 57.7856 80.8949 57.3126C81.5451 56.8398 81.8701 55.7363 81.8701 54.0024V47.6184C81.8701 46.0027 81.5845 44.9387 81.0131 44.4264C80.4417 43.9141 79.5058 43.6383 78.2052 43.5988ZM76.5502 24.3286H75.4862C74.8163 24.3286 74.3532 24.4567 74.097 24.7128C73.8409 24.969 73.7128 25.432 73.7128 26.102V35.0277C73.7128 35.6582 73.8409 36.1115 74.097 36.3873C74.3532 36.6631 74.8162 36.801 75.4862 36.801H76.5502C78.1265 36.801 79.2397 36.5646 79.8899 36.0917C80.5403 35.6188 80.8652 34.5153 80.8652 32.7814V28.348C80.8652 26.6141 80.5402 25.5107 79.8899 25.0378C79.2397 24.5649 78.1265 24.3286 76.5502 24.3286Z" fill="black"/>
</svg>
