<svg width="414" height="302" viewBox="0 0 414 302" fill="none" xmlns="http://www.w3.org/2000/svg">
<path fill-rule="evenodd" clip-rule="evenodd" d="M91.6437 39.1762C92.326 34.0103 92.8735 28.4064 93.5826 23.3109C93.8298 21.5343 94.0115 19.8207 94.2291 18.0449L94.7161 14.0981C94.8055 13.4574 94.719 12.9268 95.0231 12.9268H104.362L105.089 18.852C105.333 20.8475 105.532 22.7786 105.811 24.7819C106.089 26.7822 106.263 28.701 106.541 30.7022C106.82 32.705 107.019 34.6362 107.263 36.6324L109.448 54.4017C109.567 55.3032 109.606 55.1244 108.662 55.1215H103.69L102.798 45.8679C102.752 45.507 102.682 45.0092 102.682 44.5729H96.5677C96.4985 45.4068 96.3477 46.3541 96.3016 47.195C96.2187 48.6799 95.9579 50.8917 95.8228 52.4948C95.7523 53.3321 95.6296 54.2855 95.5603 55.1215H89.715L90.0219 52.4046C90.6144 48.1229 91.0722 43.5004 91.6432 39.1775L91.6437 39.1762ZM97.873 31.5658C97.7457 32.4661 97.7383 33.2996 97.6237 34.2056L97.1058 39.5326H102.145L100.618 22.0456C100.57 21.6913 100.537 21.0514 100.532 20.7197C100.521 19.859 100.331 18.9126 100.331 18.0325H99.0543C98.7782 18.0325 98.8466 18.2839 98.8511 18.569L98.7139 20.6493C98.5162 23.2306 98.2335 26.3187 98.1128 28.8493L97.873 31.5662V31.5658ZM139.5 33.9559C139.5 37.4598 139.589 40.9434 139.632 44.4402C139.638 44.8679 139.703 45.1938 139.703 45.7142C139.701 46.7039 139.722 48.5514 140.082 49.2988C140.768 50.7256 142.317 50.8204 143.868 50.8204H173.968C174.824 50.8204 175.666 50.7697 176.311 50.5435C176.803 50.3705 177.162 50.1121 177.473 49.689C178.16 48.7537 178.049 46.9478 178.064 45.7785C178.069 45.3615 178.135 45.076 178.134 44.5721C178.127 41.2771 178.268 37.6781 178.268 34.3593C178.268 33.4257 178.202 32.7392 178.202 31.8064L178.134 24.0798C178.135 23.2009 178.066 22.4634 178.067 21.5269C178.068 18.9662 177.778 17.227 174.64 17.227H143.062C141.377 17.227 140.27 17.8743 139.915 19.1866C139.792 19.6456 139.699 21.0588 139.702 21.5261C139.707 22.4214 139.635 23.1128 139.636 23.9459C139.639 27.2008 139.501 30.6676 139.501 33.9563L139.5 33.9559ZM290.481 30.2716L289.597 39.5326H294.636L294.37 36.843C294.242 34.5278 293.811 31.8381 293.695 29.4546C293.681 29.1584 293.636 29.1757 293.628 28.8506C293.617 28.4538 293.593 27.8671 293.533 27.4678L292.917 19.3485C292.868 19.0173 292.822 18.344 292.822 18.0329H291.411C291.351 18.2884 291.282 19.0799 291.275 19.3753L291.004 23.4712C290.838 25.5902 290.699 28.1955 290.481 30.272L290.481 30.2716ZM310.962 18.0325V34.8966H312.777C316.073 34.8966 317.017 33.8694 317.01 30.7982C317.008 30.2535 317.078 29.9206 317.079 29.4571V23.4057C317.078 22.9517 317.008 22.6591 317.01 22.1313C317.022 17.6588 314.753 18.0325 310.962 18.0325ZM112.29 39.5326H117.531C117.842 39.5326 117.663 39.9331 117.664 40.3373C117.664 40.669 117.688 41.0888 117.661 41.4102C117.509 43.2614 117.641 45.3376 117.662 47.1942C117.69 49.5369 118.713 50.8496 121.15 50.792C123.996 50.724 124.19 49.2279 124.441 46.9808C124.485 46.5902 124.417 46.1856 124.469 45.7991C124.596 44.8741 124.448 43.7192 124.451 42.8247L124.374 41.02C124.27 40.0456 123.988 38.7304 123.523 38.1091C121.933 35.986 115.939 37.0197 113.485 33.0965C111.666 30.1876 112.021 25.6014 112.021 21.9966C112.021 19.0865 112.552 16.4471 113.917 14.8896C114.281 14.4747 114.6 14.136 115.133 13.8204C116.466 13.0314 118.299 12.619 120.161 12.523H121.883C123.203 12.591 124.463 12.8135 125.485 13.1686C126.581 13.5493 127.44 14.1744 128.101 14.9877C130.599 18.0651 129.894 23.985 129.894 28.1773H124.384C124.384 26.7361 124.452 25.5235 124.452 24.0789C124.452 22.3909 124.653 19.4285 123.82 18.3275C122.872 17.0733 120.54 16.9778 119.231 17.5822C118.741 17.8092 118.432 18.1726 118.203 18.6366C117.947 19.1499 117.834 19.6163 117.75 20.2661C117.706 20.6027 117.723 20.9925 117.684 21.2756C117.64 21.5957 117.666 21.9393 117.666 22.2656C117.666 24.5779 117.484 27.507 118.308 29.4843C119.417 32.1472 124.217 30.8979 127.455 33.6399C129.661 35.5068 130.163 39.1425 130.163 42.2874C130.163 47.3046 130.522 52.897 125.806 54.7943C124.751 55.2191 123.404 55.4564 122.009 55.5228H120.341C119.025 55.4606 117.754 55.2521 116.733 54.9105C114.713 54.236 113.614 52.9225 112.884 50.965C111.972 48.5164 112.119 44.4262 112.154 41.6125C112.159 41.1778 112.291 40.3134 112.291 39.5322L112.29 39.5326ZM134.18 48.7496C133.974 47.052 133.983 45.0727 133.992 43.2948C133.995 42.6661 133.924 42.1754 133.924 41.4811C133.924 39.0184 133.876 36.3638 133.876 34.0231C133.876 31.6824 133.924 29.0282 133.924 26.5659C133.924 25.329 133.991 24.1745 133.991 22.8709C133.991 19.7898 134.154 16.1962 136.601 14.1937C138.048 13.0088 140.499 12.5238 142.457 12.5238H175.244C178.04 12.5238 181.118 13.2605 182.523 15.794C182.934 16.5348 183.246 17.4495 183.437 18.3733C183.581 19.0725 183.688 20.0012 183.708 20.7902C183.717 21.1334 183.779 21.2035 183.779 21.592C183.781 22.1746 183.779 22.7597 183.777 23.3418C183.774 23.9179 183.845 24.3719 183.845 25.0204C183.845 27.3772 183.912 29.5539 183.912 31.9407L183.845 43.1613C183.845 43.8193 183.775 44.214 183.777 44.8407C183.784 46.6915 183.756 47.9037 183.423 49.7273C183.1 51.506 182.274 53.0919 180.821 54.1128C179.56 54.9995 177.41 55.5232 175.244 55.5232H142.457C137.648 55.5232 134.763 53.5323 134.181 48.7496H134.18ZM188.227 49.8633C187.761 47.8761 187.739 44.1885 187.806 41.9487L187.938 40.1993C187.959 39.8845 187.834 39.5322 188.144 39.5322H193.384C193.384 40.0423 193.314 40.266 193.316 40.7403L193.25 43.1609C193.253 44.5321 193.233 47.8044 193.593 48.8641C193.811 49.5069 194.064 49.9172 194.605 50.2716C195.55 50.8917 197.546 50.9304 198.537 50.4632C200.245 49.6597 200.17 46.9853 200.17 44.9071C200.17 42.8498 200.253 39.5714 199.116 38.0333C198.542 37.2587 197.564 37.0498 196.528 36.791C195.482 36.5294 194.513 36.2896 193.49 36C192.034 35.5888 190.228 34.6873 189.365 33.4067C187.346 30.413 187.673 26.0476 187.673 22.332C187.673 20.2818 187.881 17.74 188.837 16.0379C189.058 15.6436 189.131 15.429 189.476 14.998C190.152 14.1538 191.056 13.544 192.2 13.1521C193.275 12.783 194.728 12.523 196.139 12.523C198.908 12.523 201.767 12.7047 203.68 14.8583C205.952 17.4137 205.612 22.1412 205.612 25.692C205.612 26.6063 205.545 27.2696 205.545 28.1773H200.036C200.036 26.3043 200.305 20.5755 199.911 19.2319C199.753 18.693 199.463 18.1936 199.042 17.8834L198.214 17.4351C196.971 16.9876 194.539 17.0725 193.786 18.7713C193.214 20.0634 193.312 23.1251 193.314 24.8877C193.315 25.2919 193.382 25.3752 193.387 25.7563C193.404 27.221 193.463 28.5098 194.121 29.7925C195.382 32.2489 202.22 30.7858 204.56 35.4779C205.383 37.1277 205.814 39.3703 205.814 41.8165C205.814 44.4262 205.918 47.1567 205.428 49.6276C205.157 50.9938 204.769 51.8237 204.055 52.8908C202.772 54.8055 199.73 55.5228 197.348 55.5228C192.683 55.5228 189.369 54.728 188.226 49.8633H188.227ZM211.175 52.7153C210.248 51.3296 209.757 49.3573 209.709 47.7315L209.577 29.9243L209.641 21.6579C209.646 21.2842 209.71 21.2298 209.714 20.8574C209.734 18.8286 210.275 16.7169 211.516 15.2007C211.601 15.0965 211.652 15.0561 211.736 14.9514C212.414 14.1068 213.428 13.5485 214.443 13.1563C216.55 12.3405 220.73 12.3347 222.678 13.0607C223.309 13.2955 224.415 13.736 224.912 14.1863C225.345 14.5798 225.624 14.7846 225.985 15.3309C226.484 16.0849 226.786 16.6996 227.054 17.6213C227.794 20.1627 227.583 23.6702 227.583 26.4979C227.583 27.1518 227.515 27.5338 227.515 28.1773H221.805L221.872 21.2574C221.872 19.7445 221.784 18.4194 220.583 17.7091C220.255 17.5154 219.786 17.3638 219.369 17.3098C217.375 17.0515 215.838 17.6003 215.458 19.6806L215.352 21.1882C215.337 21.7131 215.354 22.2731 215.354 22.8025C215.355 23.4148 215.283 23.7942 215.286 24.3472L215.22 29.1184C215.22 32.4199 215.115 37.1446 215.287 40.3381L215.285 43.8341C215.286 44.2672 215.358 44.4353 215.355 44.9058C215.337 48.0635 215.022 50.8196 218.714 50.8196C221.16 50.8196 222.072 49.574 222.072 47.1245V39.5994H227.784C227.784 41.8845 227.936 46.223 227.661 48.4134C227.471 49.9354 227.097 51.3177 226.427 52.3527C226.057 52.9254 225.737 53.3337 225.214 53.7606C224.936 53.9884 224.776 54.0857 224.465 54.2871C223.324 55.0267 221.35 55.4453 219.295 55.5228H217.9C215.89 55.4474 213.964 55.042 212.826 54.2884C212.092 53.8018 211.662 53.4441 211.174 52.7149L211.175 52.7153ZM231.95 54.9179V13.1278C231.95 12.9733 231.997 12.9264 232.152 12.9264H237.661V31.2012H243.775V12.9264H249.486V55.1198H243.775V36.3069H237.661V55.1198H232.152C231.997 55.1198 231.95 55.0729 231.95 54.9179ZM254.39 55.1198V12.9264H259.9C260.055 12.9264 260.102 12.9733 260.102 13.1278V54.9179C260.102 55.0729 260.055 55.1198 259.9 55.1198H254.39ZM264.939 55.1198V12.9264H270.651V50.0132H280.057V55.1198H264.939ZM286.083 23.3204L287.291 13.4418C287.321 13.169 287.236 12.9264 287.515 12.9264H296.853C296.862 13.3305 296.994 14.0157 297.043 14.4166L297.586 18.8446C297.682 19.8623 297.812 20.8207 297.949 21.8417C298.342 24.7831 298.631 27.8028 299.032 30.7022C299.309 32.7038 299.509 34.6296 299.754 36.6316C299.993 38.5747 300.26 40.5816 300.481 42.5565C300.593 43.5503 300.705 44.521 300.846 45.5515C301.249 48.511 301.532 51.4528 301.939 54.4017C302.063 55.2929 302.1 55.1235 301.153 55.1207H296.181C296.113 54.3007 295.949 53.3337 295.913 52.4998C295.877 51.6613 295.738 50.6745 295.655 49.869L295.174 44.5721H289.06L288.667 48.5464C288.619 49.0063 288.625 49.3944 288.561 49.8509L288.318 52.4981C288.272 53.3387 288.121 54.2863 288.052 55.1202H282.206L283.483 44.5045C283.679 42.746 283.904 40.8977 284.135 39.1762C284.373 37.3938 284.544 35.6942 284.78 33.909C285.238 30.4373 285.625 26.7888 286.083 23.3208L286.083 23.3204ZM305.252 54.9179V13.1278C305.252 12.9733 305.299 12.9264 305.453 12.9264H312.508C314.389 12.9264 316.137 13.0322 317.639 13.4389C321.919 14.6004 322.735 18.5892 322.72 22.4667C322.718 23.0192 322.791 23.2875 322.788 23.8095C322.786 24.2796 322.788 24.751 322.788 25.2211C322.788 29.2041 323.162 34.4751 320.945 37.2871C320.496 37.8582 319.521 38.7646 318.824 38.927C318.849 39.2405 319.012 39.6909 319.1 39.9945C319.194 40.3147 319.282 40.6336 319.384 40.9867C319.738 42.2095 323.36 54.7441 323.392 55.1194H317.345L313.851 41.6817C313.769 41.3546 313.699 41.0662 313.61 40.7135C313.497 40.2636 313.484 39.9348 313.247 39.9348H310.962V55.1194H305.453C305.298 55.1194 305.251 55.0724 305.251 54.9175L305.252 54.9179ZM342.83 0H70.277C65.7419 0 62.0312 3.70984 62.0312 8.24537V59.8016C62.0312 64.3368 65.7415 68.0474 70.277 68.0474H342.83C347.365 68.0474 351.075 64.3372 351.075 59.8016V8.24537C351.075 3.71025 347.365 0 342.83 0Z" fill="white"/>
<path d="M74.3588 238.382H92.2598C96.8498 238.382 99.1447 240.677 99.1447 245.267V266.198C99.1447 290.066 87.2105 302 63.3425 302H35.8022C11.9338 302 0 290.066 0 266.198V117.479C0 93.611 11.9342 81.6772 35.8022 81.6772H63.3425C87.2109 81.6772 99.1447 93.6115 99.1447 117.479V138.411C99.1447 143 96.8498 145.295 92.2598 145.295H74.3588C69.7688 145.295 67.4739 143 67.4739 138.411V132.076C67.4739 124.181 66.4636 119.086 64.4443 116.791C62.4246 114.496 57.4671 113.349 49.5724 113.349C42.7785 113.349 38.0972 114.405 35.5266 116.516C32.956 118.627 31.6709 123.814 31.6709 132.076V251.601C31.6709 259.863 32.956 265.05 35.5266 267.162C38.0967 269.273 42.7785 270.328 49.5724 270.328C53.0605 270.328 55.585 270.236 57.1457 270.053C58.7065 269.87 60.451 269.227 62.3784 268.125C64.3063 267.024 65.6375 265.142 66.3717 262.479C67.1059 259.817 67.4735 256.191 67.4735 251.601V245.267C67.4735 240.677 69.7688 238.382 74.3588 238.382ZM110.163 292.361V88.5621C110.163 83.9722 112.458 81.6772 117.048 81.6772H134.949C139.539 81.6772 141.834 83.9722 141.834 88.5621V262.066C141.834 265.188 142.431 267.345 143.625 268.538C144.818 269.732 146.975 270.329 150.097 270.329H180.666C185.256 270.329 187.551 272.624 187.551 277.214V295.115C187.551 299.705 185.256 302 180.666 302H119.802C116.13 302 113.605 301.312 112.228 299.935C110.852 298.558 110.163 296.033 110.163 292.361ZM263.565 248.847V88.5621C263.565 83.9722 265.86 81.6772 270.45 81.6772H288.351C292.941 81.6772 295.236 83.9722 295.236 88.5621V266.198C295.236 290.066 283.302 302 259.434 302H231.618C207.749 302 195.816 290.066 195.816 266.198V88.5621C195.816 83.9722 198.111 81.6772 202.701 81.6772H220.602C225.192 81.6772 227.487 83.9722 227.487 88.5621V248.847C227.487 257.293 228.772 262.984 231.343 265.922C233.913 268.86 238.319 270.329 244.562 270.329H246.214C252.824 270.329 257.368 268.906 259.847 266.06C262.325 263.214 263.565 257.477 263.565 248.847ZM311.763 292.361V91.3165C311.763 87.6446 312.452 85.1197 313.829 83.7427C315.206 82.3661 317.73 81.6772 321.402 81.6772H372.627C396.496 81.6772 408.43 93.6115 408.43 117.479V165.951C408.43 170.357 406.869 175.682 403.747 181.924C402.829 183.576 403.013 185.138 404.298 186.606C410.174 192.848 413.111 200.193 413.111 208.638V266.198C413.111 290.066 401.177 302 377.309 302H321.402C314.976 302 311.763 298.787 311.763 292.361ZM364.365 203.131H351.696C348.575 203.131 346.418 203.727 345.224 204.921C344.031 206.114 343.434 208.271 343.434 211.393V262.067C343.434 265.188 344.031 267.346 345.224 268.539C346.418 269.733 348.575 270.329 351.696 270.329H361.335C368.68 270.329 373.867 269.228 376.896 267.024C379.925 264.821 381.44 259.68 381.44 251.602V221.858C381.44 214.33 380.109 209.373 377.447 206.986C374.784 204.599 370.424 203.314 364.365 203.131ZM356.654 113.349H351.696C348.575 113.349 346.418 113.946 345.224 115.139C344.031 116.332 343.434 118.49 343.434 121.611V163.197C343.434 166.135 344.031 168.246 345.224 169.531C346.418 170.816 348.575 171.459 351.696 171.459H356.654C363.998 171.459 369.184 170.357 372.214 168.154C375.244 165.951 376.758 160.81 376.758 152.731V132.076C376.758 123.997 375.243 118.856 372.214 116.653C369.184 114.45 363.998 113.349 356.654 113.349Z" fill="white"/>
</svg>
